<svg width="100" height="50" viewBox="0 0 100 50" fill="none" xmlns="http://www.w3.org/2000/svg">
<path fill-rule="evenodd" clip-rule="evenodd" d="M50.2184 14.6658C50.6481 14.685 51.0585 14.8416 51.3835 15.1103C51.8265 15.5103 51.9426 16.1773 51.733 16.711C50.918 18.3113 48.9797 19.3803 47.6553 19.7339C46.8629 19.9117 45.8612 19.9117 45.1387 19.645C44.7889 19.845 44.4939 20.4914 44.0668 20.2228C43.4486 19.7623 43.9837 19.0415 43.6269 18.53C43.5533 18.4247 43.3679 18.417 43.2747 18.2447C42.7852 17.2221 43.3912 16.244 44.0668 15.4662C45.1931 14.2675 48.4244 12.9318 50.2184 14.6658V14.6658ZM46.3137 15.9861C45.709 16.1005 45.0261 16.3693 44.657 16.8098C44.2875 17.25 44.0526 17.6792 44.2765 18.1366C45.0602 17.542 45.4407 16.7183 46.314 16.2151C46.3137 16.1233 46.448 16.0547 46.3137 15.9861ZM50.2717 15.9965C48.589 15.8656 47.3211 16.9975 46.1263 18.0852C46.0532 18.2592 45.6144 18.455 45.9557 18.6508C47.5652 18.7813 49.1013 18.3683 50.2717 17.4105C50.6133 17.1277 50.8563 16.7578 50.6864 16.366C50.6133 16.214 50.4412 16.0617 50.2717 15.9965ZM64.6678 23.2241C65.4193 24.9898 66.053 27.7735 64.6678 29.4713C64.2922 29.8786 63.6349 30.2541 63.2124 29.9465C61.6625 28.7472 61.0056 27.0267 60.0428 25.4873C59.902 25.4194 59.902 25.6008 59.8316 25.6687C59.4795 27.2304 60.1367 29.2677 59.0335 30.4896C58.611 30.5575 58.2156 30.3479 58.0707 29.9465C57.5305 28.3395 58.0935 26.6644 58.2344 25.0574C58.5633 24.2424 58.7042 23.292 59.4322 22.6807C60.6062 23.1333 61.1696 24.4011 61.8499 25.3293C62.3436 26.0307 62.7423 26.8231 63.3056 27.4567C63.7986 27.253 63.556 26.6319 63.5407 26.257C63.3522 24.7858 62.9297 23.4278 62.5303 22.0245C62.5075 21.6624 62.2963 21.0511 62.6946 20.8248C63.7526 21.2777 64.198 22.3413 64.6678 23.2241V23.2241ZM57.2949 22.0451C57.2949 22.3929 57.0241 22.8274 56.7978 22.8794C54.6313 23.2269 52.2164 23.0184 50.1853 23.7135C50.1176 23.9683 50.4109 24.0146 50.5689 24.0841C52.3063 24.3621 54.1349 24.4316 55.8279 24.8721C56.7229 25.1055 57.047 26.1933 57.1147 27.0968C57.1562 27.8093 56.8894 28.6725 56.2118 29.1594C54.5421 30.2486 51.9917 30.2019 50.2984 29.206C49.6513 28.8334 49.0345 28.233 48.9894 27.4913C48.9933 26.9024 49.2379 26.4388 49.6441 26.2168C51.2693 25.5447 53.2778 25.916 54.6775 26.7728C54.7671 27.2365 54.2785 27.2113 54.0447 27.3755C52.4871 28.3025 51.3138 26.3333 49.8694 27.0508C49.6663 27.1898 49.5195 27.5776 49.7566 27.6999C51.5395 28.511 53.5257 27.9315 55.286 27.4218C55.4891 27.3523 55.7376 27.1438 55.7599 26.9353C55.6922 26.1937 54.8799 26.0318 54.3606 25.8233C52.8259 25.4295 51.1333 25.4295 49.4855 25.2673C49.1696 25.1978 48.7671 24.9719 48.6732 24.7113C48.4927 24.1553 48.4927 23.3905 48.8988 22.9271C50.9976 21.0268 54.1797 21.1893 56.8429 21.6989C57.0238 21.7671 57.2268 21.8366 57.2949 22.0451V22.0451ZM47.1549 23.3417C47.3797 25.5728 47.5045 27.642 47.4546 29.9894C47.4046 30.2911 47.03 30.3612 46.7802 30.4774C46.3806 30.5471 45.864 30.4679 45.7058 30.2682C45.1314 29.4077 45.3312 28.2462 45.2812 27.2002C45.3562 25.5503 45.3312 23.7603 45.8311 22.2259C45.9267 22.003 46.2057 21.8076 46.4305 21.9467C47.03 22.2259 47.1299 22.7839 47.1549 23.3417V23.3417ZM72.9987 22.8731C73.1114 23.0528 73.2292 23.3304 72.9987 23.4509C71.9442 23.8954 70.5153 23.6954 69.2966 23.8287C68.9686 24.0954 68.7106 24.5398 68.8274 24.9401C68.9452 25.0068 69.0501 25.1083 69.1795 25.0954C69.9287 25.1401 71.0538 24.762 71.5464 25.4287C71.6665 25.6271 71.5301 26.3679 71.195 26.3846C70.2808 26.4964 68.7775 26.2758 68.3358 26.4964C67.7736 26.8519 67.8201 27.5408 67.6093 28.0971C68.0079 28.3415 68.4251 28.0913 68.8977 28.0301C69.7654 27.8967 70.7262 27.6523 71.5925 27.8301C71.7565 28.119 71.9911 28.4304 71.8268 28.786C70.3497 29.8974 68.4445 31.0366 66.4147 30.2308C65.6529 29.9068 65.3134 28.8082 65.5714 27.8752C65.735 27.2081 66.4612 26.5637 66.0164 25.8522C65.9462 25.5408 66.1339 25.2745 66.415 25.2078C67.188 25.2078 67.0237 24.2963 67.4223 23.8738C66.9772 23.4071 65.8528 23.4293 65.9699 22.4956C66.509 22.229 67.1653 22.3179 67.7736 22.229C69.156 21.962 70.7024 21.8064 72.1092 21.962C72.3893 22.0154 72.7645 22.5398 72.9987 22.8731ZM39.4897 17.7637C41.6767 19.5173 44.5141 22.5066 44.1587 25.9472C43.7319 28.6677 40.7932 30.7134 38.3047 31.3646C35.8872 32.0619 32.8538 31.9921 30.3886 31.4343C30.2227 31.8762 30.0569 32.4105 29.5356 32.5968C29.2039 32.713 28.7771 32.6433 28.5165 32.4341C27.7819 31.7597 28.3743 30.4577 27.3077 30.0397C25.222 29.1794 22.9704 27.482 21.9042 25.3897C21.762 24.9714 21.9279 24.553 22.1885 24.2276C23.8241 22.9489 25.8858 22.4375 27.9478 22.0421C28.0663 22.0886 28.0189 21.9259 28.1137 21.8794C28.2321 20.4844 28.2795 19.0659 28.7297 17.8105C28.8324 17.6343 29.0851 17.5781 29.2513 17.6943C30.5548 18.6705 29.9384 20.5077 30.5074 21.8325C32.9959 21.9488 35.4844 22.065 37.4514 23.437C38.1151 23.9716 38.2769 24.9926 38.0674 25.576C37.8583 26.1585 37.167 26.5758 36.527 26.6216C36.1001 26.6216 35.2945 26.6624 35.3419 26.343C35.3893 26.0234 36.7917 25.5002 36.3611 25.064C35.742 24.4371 32.6443 24.0642 30.7244 23.8318C30.4875 23.7853 30.2701 23.855 30.2701 24.1107C30.2227 25.8775 30.0806 27.8303 30.3886 29.528C30.4123 29.6446 30.5544 29.784 30.6733 29.8066C34.0621 30.3415 37.6409 30.039 40.2953 28.1328C41.5277 27.1569 41.9308 25.7842 41.7172 24.2734C40.6507 20.0654 36.1716 17.5309 32.498 15.9035C28.9196 14.3692 24.9614 13.5786 20.7192 13.7881C20.0437 13.8366 18.9734 14.0653 18.9655 14.2998C18.9576 14.5342 20.178 14.4605 20.0317 14.9041C19.8858 15.3474 18.6455 15.0843 18.2781 14.9738C17.9106 14.8633 17.9463 14.3459 18.0411 14.0205C18.9655 12.4164 21.545 12.2867 22.7101 12.2305C29.1562 12.0674 35.3897 14.4756 39.4897 17.7637V17.7637ZM28.2262 24.0506C26.6127 24.0717 24.9061 24.2192 23.4098 24.7251C23.106 24.8305 22.7317 25.1256 22.9654 25.4842C23.5731 26.2219 24.4424 26.8277 25.2567 27.255C26.0711 27.6818 27.1507 28.2249 28.1327 28.3517C28.3664 26.981 28.3664 25.6317 28.3431 24.2192C28.2492 24.1771 28.3427 24.0928 28.2262 24.0506V24.0506ZM76.6381 21.4762C76.5687 23.4503 74.6948 24.6761 74.6948 26.6502C74.7642 26.7183 74.8111 26.809 74.9029 26.7643C76.4069 25.1529 77.8866 22.8608 80.0839 22.1802C80.6629 22.1348 81.186 22.6283 81.4025 22.9972C82.1658 24.4949 81.9815 26.6055 80.9173 27.9671C79.8192 29.3037 77.9101 30.6448 75.737 30.4176C74.8353 32.5963 74.2096 34.8883 73.8628 37.2712C73.6778 37.7476 73.2388 37.3165 72.9614 37.2258C71.0882 35.7735 72.6263 31.9288 72.7533 31.4382C72.8803 30.949 73.3816 29.7949 73.7482 28.8285C72.8692 27.2858 73.4242 25.4245 74.1409 23.9948C74.6959 23.0416 75.4599 22.0884 76.3616 21.3624C76.4762 21.3628 76.5687 21.3855 76.6381 21.4762V21.4762ZM80.428 23.517C80.1345 23.4702 80.0118 23.845 79.7676 23.9153C78.6424 25.1328 77.5165 26.3503 76.9535 27.8019C77.7125 27.8955 78.3481 27.4273 79.0093 27.1699C80.1345 26.4907 80.8442 25.3675 80.7708 24.0795C80.7216 23.8681 80.5259 23.7043 80.428 23.517Z" fill="#807E7E"/>
</svg>
