<svg width="100" height="50" viewBox="0 0 100 50" fill="none" xmlns="http://www.w3.org/2000/svg">
<path fill-rule="evenodd" clip-rule="evenodd" d="M11.2753 22.9366L16.3708 19.8018L11.2753 16.667L6.17969 19.8018L11.2753 22.9105L6.17969 26.0453L11.2753 29.2062L16.3708 26.0714L11.2753 22.9366ZM16.3437 27.0641L11.2482 30.1989L16.3437 33.3337L21.4393 30.1989L16.3437 27.0641ZM16.3708 26.0453L21.4664 22.9105L16.3708 19.8018L21.4393 16.667L26.5349 19.8018L21.4393 22.9366L26.5349 26.0714L21.4393 29.2062L16.3708 26.0453ZM68.646 28.3962L68.4568 29.9081H66.5099V18.8892H68.7272V23.1174C69.2139 22.0411 70.1873 21.4517 71.5664 21.4517C73.6484 21.4774 75.1897 22.8355 75.1897 25.5774V25.8337C75.1897 28.5756 73.7295 30.1387 71.5123 30.1387C70.0521 30.1131 69.1057 29.4724 68.646 28.3962ZM30.4928 19.7092H34.6029C37.2258 19.7092 39.389 21.1442 39.389 24.4243V25.1162C39.389 28.4218 37.361 29.9081 34.684 29.9081H30.4928V19.7092ZM32.7912 21.5542V28.0374H34.5488C36.036 28.0374 37.0365 27.1149 37.0365 25.0649V24.5268C37.0365 22.4768 35.9819 21.5542 34.4677 21.5542H32.7912ZM42.4445 21.6567H40.6328V29.9337H42.9041V26.1412C42.9041 24.3986 43.3638 23.7836 45.2296 23.7836H46.1759V21.5799H45.6081C43.9857 21.5799 43.0934 22.2717 42.7419 23.5786L42.4445 21.6567ZM46.6356 25.9618V25.7312C46.6356 22.9636 48.5014 21.4517 51.0431 21.4517C53.6389 21.4517 55.4506 22.9636 55.4506 25.7312V25.9618C55.4506 28.6781 53.693 30.1387 51.0431 30.1387C48.231 30.1131 46.6356 28.6781 46.6356 25.9618ZM53.1252 25.7312V25.9362C53.1252 27.4224 52.314 28.2424 51.0161 28.2681C49.7182 28.2681 48.907 27.4224 48.907 25.9362V25.7312C48.907 24.1168 49.7452 23.2711 51.0161 23.2711C52.314 23.2711 53.1252 24.1936 53.1252 25.7312ZM56.6404 21.6567H58.5331L58.7495 23.2199C59.2091 22.1692 60.1826 21.4517 61.6157 21.4517C63.833 21.4517 65.2931 22.9636 65.2931 25.7568V25.9874C65.2931 28.7037 63.6707 30.1387 61.6157 30.1387C60.2367 30.1387 59.2903 29.5493 58.8306 28.6012V32.7781H56.6133L56.6404 21.6567ZM62.9947 25.7568V25.9362C62.9947 27.4737 62.1835 28.2681 60.8856 28.2937C59.6147 28.2937 58.8036 27.3712 58.8036 25.9105V25.7568C58.8036 24.2193 59.6418 23.2968 60.9127 23.2968C62.1024 23.2968 62.9947 24.1168 62.9947 25.7568ZM70.7822 23.2711C71.999 23.2711 72.8643 24.1168 72.8643 25.6287V25.8337C72.8643 27.4737 72.0801 28.2681 70.7552 28.2681C69.5113 28.2681 68.6731 27.3712 68.6731 25.8337V25.6543C68.6731 24.2193 69.5384 23.2711 70.7822 23.2711ZM76.1631 25.9618V25.7312C76.1631 22.9636 78.0289 21.4517 80.5706 21.4517C83.1664 21.4517 84.9781 22.9636 84.9781 25.7312V25.9618C84.9781 28.6781 83.1935 30.1387 80.5706 30.1387C77.7585 30.1131 76.1631 28.6781 76.1631 25.9618ZM80.5706 23.2711C81.8685 23.2711 82.6797 24.1936 82.6797 25.7312V25.9362C82.6797 27.4224 81.8685 28.2424 80.5706 28.2681C79.2727 28.2681 78.4615 27.4224 78.4615 25.9362V25.7312C78.4615 24.1168 79.2997 23.2711 80.5706 23.2711ZM87.9525 25.6287L84.897 21.6567H87.5199L89.2774 24.1424L91.0621 21.6567H93.6579L90.5483 25.603L93.8201 29.9081H91.2514L89.2504 27.1662L87.3035 29.9081H84.6266L87.9525 25.6287Z" fill="#807E7E"/>
</svg>
