<svg width="100" height="50" viewBox="0 0 100 50" fill="none" xmlns="http://www.w3.org/2000/svg">
<path fill-rule="evenodd" clip-rule="evenodd" d="M25.5278 14.4443H24.9437C23.2905 14.5424 21.6705 15.0761 20.3369 16.0455C18.9483 17.0258 17.8682 18.4309 17.3062 20.0211C16.689 21.7639 16.7 23.7244 17.3613 25.4563C18.0666 27.3406 19.4993 28.9418 21.2957 29.8894C22.7946 30.6954 24.5359 31.0113 26.2221 30.8479C27.9634 30.7063 29.6716 29.9874 30.906 28.7675C32.7575 27.0465 33.3306 24.3344 32.9338 21.9272H25.2302V24.171C26.4498 24.1783 27.6695 24.1759 28.8891 24.1734C29.499 24.1722 30.1088 24.171 30.7186 24.171C30.5864 25.282 30.1786 26.4257 29.2969 27.1773C28.1728 28.2447 26.5637 28.713 25.0208 28.6259C23.3677 28.5714 21.7696 27.7872 20.7227 26.5346C19.6316 25.2493 19.1577 23.5066 19.3891 21.851C19.5985 20.1736 20.5684 18.6051 22.0011 17.6793C23.3126 16.797 24.9988 16.503 26.5637 16.8297C27.6217 17.0258 28.5916 17.5813 29.3961 18.3002C29.6919 17.9953 29.995 17.6976 30.299 17.3989L30.2991 17.3988L30.2991 17.3988L30.2992 17.3988L30.2992 17.3987L30.2992 17.3987C30.5274 17.1745 30.7563 16.9496 30.9831 16.7208C29.5504 15.2939 27.5556 14.4879 25.5278 14.4443ZM71.4191 15.2877H69.2877C69.2877 17.0213 69.2888 18.755 69.2899 20.4882C69.2921 23.9535 69.2943 27.4172 69.2877 30.876C69.8182 30.8924 70.3544 30.8903 70.8877 30.8883H70.8878H70.8878H70.8879H70.8881L70.889 30.8882C71.0661 30.8876 71.2429 30.8869 71.4191 30.8869V15.2877ZM42.7362 21.3335C41.4961 20.4765 39.8692 20.1728 38.3674 20.444C36.4788 20.7586 34.8063 22.0927 34.2147 23.8391C33.6231 25.4662 33.8847 27.3753 34.9656 28.7637C35.9213 30.0219 37.4913 30.7921 39.1069 30.8789C40.8704 30.9873 42.6793 30.2714 43.7829 28.9372C44.8069 27.7441 45.1937 26.0953 44.8865 24.5876C44.6476 23.2859 43.8626 22.0927 42.7362 21.3335ZM37.1159 23.4703C37.5255 22.9931 38.0943 22.6568 38.7087 22.5049C39.6871 22.2663 40.768 22.5375 41.5075 23.1883C42.6566 24.1971 42.8728 25.976 42.1219 27.2668C41.6895 28.0261 40.9045 28.601 40.0057 28.7528C39.0386 28.9372 37.9919 28.6227 37.2979 27.9502C36.0805 26.7787 36.0123 24.7286 37.1159 23.4703ZM49.8769 20.4448C51.5962 20.1301 53.4748 20.5859 54.7614 21.7362C56.8564 23.5267 57.0841 26.8799 55.2965 28.9417C54.2149 30.2439 52.4615 30.9601 50.7309 30.8841C49.0799 30.8407 47.4518 30.0594 46.4726 28.7681C45.3682 27.3465 45.1291 25.3932 45.7553 23.7329C46.3815 22.04 48.0211 20.7487 49.8769 20.4448ZM50.2185 22.5067C49.6037 22.6586 49.0344 22.995 48.6245 23.4616C47.5315 24.6987 47.577 26.7171 48.7498 27.8999C49.4443 28.6053 50.5259 28.9525 51.5279 28.7572C52.416 28.5944 53.213 28.0301 53.6456 27.2705C54.3857 25.9683 54.1694 24.1887 53.008 23.1795C52.2679 22.5284 51.1863 22.2679 50.2185 22.5067ZM64.2322 20.7577C62.8701 20.0704 61.1894 20.2921 59.9262 21.0902C58.3993 22.0325 57.3888 23.7729 57.3558 25.5798C57.2899 27.1761 57.9929 28.7835 59.1793 29.8255C60.3546 30.8675 62.0353 31.3996 63.5621 30.9673C64.2651 30.801 64.8473 30.3576 65.3526 29.8588C65.3856 30.8897 65.3856 32.0426 64.7045 32.8851C64.0674 33.7054 62.936 33.9493 61.9584 33.7719C60.9807 33.5946 60.2008 32.8186 59.8164 31.9096C59.5584 32.0229 59.2989 32.13 59.0401 32.2366L59.0398 32.2368L59.0398 32.2368C58.6156 32.4117 58.1935 32.5857 57.7842 32.7853C58.4433 34.3705 59.9262 35.6232 61.6288 35.8782C63.2216 36.122 64.9901 35.7562 66.1435 34.5701C67.198 33.4948 67.5715 31.9317 67.5825 30.4574V20.6801C67.209 20.6745 66.8383 20.6745 66.4689 20.6745C66.0996 20.6745 65.7316 20.6745 65.3636 20.669C65.3581 20.8242 65.3581 20.9794 65.3581 21.1332C65.3581 21.287 65.3581 21.4394 65.3526 21.5891C65.0121 21.2676 64.6606 20.9461 64.2322 20.7577ZM60.4754 23.5179C60.9038 22.9969 61.53 22.62 62.2 22.5092C63.1118 22.3429 64.0784 22.6865 64.6826 23.3849C65.6602 24.5156 65.781 26.2782 65.056 27.5752C64.6276 28.3401 63.8258 28.8943 62.958 28.983C62.0353 29.0828 61.0796 28.6837 60.4864 27.9632C59.4429 26.7438 59.4429 24.7595 60.4754 23.5179ZM74.7823 21.634C76.0945 20.4193 78.1175 20.0072 79.8015 20.6471C81.398 21.2436 82.415 22.751 82.9289 24.3018C81.7425 24.7898 80.5587 25.2751 79.375 25.7605C78.1913 26.2458 77.0076 26.7311 75.8211 27.2191C76.1492 27.8372 76.6522 28.4012 77.3301 28.6289C78.2815 28.9651 79.4188 28.8458 80.217 28.2168C80.5341 27.9782 80.7856 27.6637 81.0262 27.3601C81.3269 27.5607 81.6276 27.7586 81.9284 27.9565L81.9287 27.9567C82.2293 28.1546 82.5299 28.3525 82.8305 28.553C81.9776 29.8219 80.5451 30.7111 79.0032 30.8521C77.2973 31.0582 75.4821 30.4075 74.3777 29.0844C72.5624 27.0022 72.7374 23.5101 74.7823 21.634ZM75.9523 23.6403C75.5805 24.1717 75.4274 24.8224 75.4384 25.4622C77.024 24.8115 78.6096 24.1608 80.1952 23.4993C79.9327 22.892 79.2985 22.5233 78.6533 22.4256C77.6145 22.2413 76.5319 22.7944 75.9523 23.6403Z" fill="#807E7E"/>
</svg>
