<svg width="100" height="50" viewBox="0 0 100 50" fill="none" xmlns="http://www.w3.org/2000/svg">
<path fill-rule="evenodd" clip-rule="evenodd" d="M24.7045 33.2127C23.6612 33.3913 22.5996 33.4449 21.5014 33.5876L18.1519 24.0194V33.9982C17.1086 34.1053 16.1568 34.2481 15.1685 34.3909V16.1113H17.9506L21.7577 26.483V16.1113H24.7045V33.2127ZM30.4701 22.8055C31.6049 22.8055 33.3437 22.7519 34.387 22.7519V25.6081C33.0874 25.6081 31.5683 25.6081 30.4701 25.6616V29.9103C32.1906 29.8032 33.9111 29.6603 35.6499 29.6067V32.3556L27.5414 32.9805V16.1113H35.6499V18.9675H30.4701V22.8055ZM46.5403 18.9676H43.502V32.106C42.5136 32.106 41.5252 32.106 40.5736 32.1416V18.9676H37.5353V16.1113H46.5405L46.5403 18.9676V18.9676ZM51.2992 22.6092H55.3077V25.4653H51.2992V31.9454H48.4254V16.1113H56.6072V18.9675H51.2992V22.6092ZM61.366 29.4461C63.0317 29.4817 64.7155 29.6069 66.3446 29.696V32.5165C63.7272 32.3557 61.1098 32.1953 58.4376 32.1416V16.1113H61.366V29.4461ZM68.8155 32.7129C69.7489 32.7665 70.7373 32.8201 71.6891 32.927V16.1113H68.8155V32.7129ZM84.5198 16.1113L80.8042 24.8049L84.5198 34.3909C83.4215 34.2481 82.3233 34.0517 81.2251 33.8732L79.1203 28.5894L76.979 33.4449C75.9172 33.2662 74.8923 33.2127 73.8308 33.0698L77.6013 24.6977L74.1968 16.1113H77.3448L79.2667 20.9133L81.3167 16.1113H84.5198Z" fill="#807E7E"/>
</svg>
