<svg width="100" height="50" viewBox="0 0 100 50" fill="none" xmlns="http://www.w3.org/2000/svg">
<path fill-rule="evenodd" clip-rule="evenodd" d="M19.3784 17.9802C19.3784 19.0143 20.2285 19.849 21.2819 19.849H23.1853V17.9802C23.1853 16.946 22.3352 16.1113 21.2819 16.1113C20.2285 16.1113 19.3784 16.946 19.3784 17.9802ZM23.1853 22.6649C23.1853 21.6307 22.3352 20.7961 21.2819 20.7961H16.5104C15.457 20.7961 14.6069 21.6335 14.6069 22.6649C14.6069 23.6963 15.457 24.5337 16.5104 24.5337H21.2819C22.3352 24.5337 23.1853 23.6991 23.1853 22.6649ZM16.5247 29.2184C17.578 29.2184 18.4281 28.3838 18.4281 27.3496V25.4808H16.5247C15.4714 25.4808 14.6212 26.3182 14.6212 27.3496C14.6212 28.381 15.4714 29.2184 16.5247 29.2184ZM21.2819 25.4808C20.2285 25.4808 19.3784 26.3154 19.3784 27.3496V32.0203C19.3784 33.0545 20.2285 33.8891 21.2819 33.8891C22.3352 33.8891 23.1853 33.0545 23.1853 32.0203V27.3496C23.1853 26.3154 22.3352 25.4808 21.2819 25.4808ZM27.9568 22.6649C27.9568 23.6991 27.1067 24.5337 26.0534 24.5337C25 24.5337 24.1499 23.6991 24.1499 22.6649V17.9802C24.1499 16.946 25 16.1113 26.0534 16.1113C27.1067 16.1113 27.9568 16.946 27.9568 17.9802V22.6649ZM28.9071 22.6649C28.9071 21.6307 29.7572 20.7961 30.8105 20.7961C31.8639 20.7961 32.714 21.6307 32.714 22.6649C32.714 23.6991 31.8639 24.5337 30.8105 24.5337H28.9071V22.6649ZM24.1499 27.3496C24.1499 28.3838 25 29.2184 26.0534 29.2184H30.8248C31.8782 29.2184 32.7283 28.3838 32.7283 27.3496C32.7283 26.3154 31.8782 25.4808 30.8248 25.4808H26.0534C25 25.4808 24.1499 26.3154 24.1499 27.3496ZM27.9568 32.0203C27.9568 30.9861 27.1067 30.1514 26.0534 30.1514H24.1499V32.0203C24.1499 33.0545 25 33.8891 26.0534 33.8891C27.1067 33.8891 27.9568 33.0545 27.9568 32.0203ZM47.1393 16.6669H50.1912V31.4648H47.1393V16.6669ZM38.1419 28.3413L37.2586 30.376C38.4845 31.2515 40.0954 31.6613 41.8507 31.6641C44.2458 31.6641 45.9134 30.2918 45.9134 28.3413C45.8789 26.1535 43.7943 25.5985 42.1684 25.1656C41.1269 24.8883 40.2736 24.6611 40.2681 24.0869C40.2681 23.6351 40.7664 23.2815 41.5223 23.2815C42.6349 23.2815 43.8042 23.7052 44.7441 24.3002L45.5708 22.2235C44.5431 21.4181 43.1049 21.0645 41.6639 21.0645C39.2404 21.0645 37.5304 22.535 37.5446 24.4433C37.5706 26.7463 39.6586 27.1973 41.2746 27.5462C42.2953 27.7667 43.1277 27.9464 43.1332 28.5266C43.1332 29.0626 42.5472 29.4162 41.6214 29.4162C40.3672 29.4162 39.096 29.0485 38.1419 28.3413ZM68.9531 28.8914C69.91 28.8914 70.7367 28.3694 71.1784 27.6061L73.616 28.9531C72.7043 30.578 70.9632 31.6669 68.9531 31.6669C66.0002 31.6669 63.6051 29.2927 63.6051 26.3657C63.6051 23.4386 66.0002 21.0645 68.9531 21.0645C70.949 21.0645 72.7043 22.1674 73.616 23.7782L71.1784 25.1196C70.7367 24.3563 69.9072 23.8343 68.9531 23.8343C67.5432 23.8343 66.4022 24.9653 66.4022 26.3629C66.4022 27.7604 67.5404 28.8914 68.9531 28.8914ZM74.8135 31.4648V16.6669H77.8626V25.3554L81.3138 21.2721H85.0509L80.7872 26.1917L85.3934 31.4648H81.4865L77.8655 27.0252V31.4648H74.8135ZM59.5648 22.5195V21.3237H62.7418V31.4545H59.5648V30.2587C59.0431 31.0913 57.7523 31.6669 56.4025 31.6669C53.6115 31.6669 51.4159 29.3032 51.4159 26.3751C51.4159 23.4471 53.6115 21.1113 56.4025 21.1113C57.7552 21.1113 59.0461 21.6897 59.5648 22.5195ZM57.0862 28.9065C58.156 28.9065 59.105 28.3728 59.5648 27.6548V25.1654C59.105 24.4333 58.156 23.8718 57.0862 23.8718C55.6185 23.8718 54.4308 24.9977 54.4308 26.3891C54.4308 27.7805 55.6156 28.9065 57.0862 28.9065Z" fill="#807E7E"/>
</svg>
