<svg width="100" height="50" viewBox="0 0 100 50" fill="none" xmlns="http://www.w3.org/2000/svg">
<path fill-rule="evenodd" clip-rule="evenodd" d="M22.4691 13.333C15.9552 13.333 10.6743 18.5563 10.6743 24.9995C10.6743 31.4433 15.9552 36.6663 22.4691 36.6663C28.9834 36.6663 34.2639 31.4433 34.2639 24.9995C34.2639 18.5567 28.9836 13.3336 22.469 13.3336L22.4691 13.333V13.333ZM27.8781 30.1594C27.6663 30.5031 27.2136 30.6108 26.8673 30.4014C24.0976 28.727 20.6114 28.3487 16.5057 29.2764C16.1101 29.3661 15.7157 29.1208 15.6256 28.7296C15.535 28.3383 15.7819 27.9482 16.1785 27.859C20.6715 26.843 24.5255 27.2803 27.6343 29.1594C27.9808 29.3698 28.0907 29.817 27.878 30.1597L27.8781 30.1594V30.1594ZM29.3218 26.9832C29.055 27.4113 28.4891 27.5456 28.0569 27.2827C24.8872 25.3554 20.0538 24.7972 16.3038 25.9231C15.8174 26.0684 15.3038 25.7973 15.1562 25.3171C15.0097 24.8361 15.2839 24.3289 15.7694 24.1827C20.0529 22.8971 25.378 23.5198 29.0188 25.7328C29.4512 25.9961 29.5879 26.5562 29.3217 26.9833L29.3218 26.9832ZM29.4457 23.6753C25.6438 21.4419 19.3725 21.2366 15.743 22.3262C15.1602 22.501 14.5439 22.1756 14.3673 21.5991C14.1907 21.0223 14.5194 20.4131 15.1026 20.2378C19.269 18.9868 26.195 19.2285 30.5717 21.7984C31.0959 22.1062 31.2679 22.7759 30.9572 23.2937C30.6473 23.8122 29.9684 23.9832 29.4459 23.6753H29.4457V23.6753ZM42.7641 24.1033C40.7276 23.6229 40.3651 23.2858 40.3651 22.5773C40.3651 21.9081 41.0021 21.4577 41.9494 21.4577C42.8677 21.4577 43.7783 21.7997 44.733 22.5038C44.7618 22.5251 44.798 22.5336 44.8337 22.528C44.8693 22.5227 44.9009 22.5034 44.9217 22.4743L45.9161 21.0878C45.9569 21.0307 45.9458 20.952 45.8907 20.9084C44.7545 20.0066 43.4751 19.5682 41.9796 19.5682C39.7807 19.5682 38.2448 20.8734 38.2448 22.7409C38.2448 24.7435 39.5697 25.4527 41.8593 26C43.808 26.444 44.1369 26.816 44.1369 27.4809C44.1369 28.2178 43.4718 28.6758 42.4016 28.6758C41.2128 28.6758 40.2433 28.2798 39.1586 27.3507C39.1317 27.3277 39.0948 27.3172 39.0607 27.3192C39.0248 27.3221 38.992 27.3386 38.9692 27.3657L37.8542 28.6782C37.8075 28.7327 37.8134 28.814 37.8675 28.8611C39.1294 29.9755 40.6816 30.5641 42.3565 30.5641C44.7259 30.5641 46.2571 29.2835 46.2571 27.3015C46.2613 25.6283 45.2486 24.7019 42.7683 24.1051L42.7641 24.1033V24.1033ZM51.6176 22.1166C50.5906 22.1166 49.7482 22.5167 49.0535 23.3366V22.4138C49.0535 22.3409 48.9938 22.2816 48.9203 22.2816H47.0968C47.0231 22.2816 46.9635 22.3409 46.9635 22.4138V32.6676C46.9635 32.7405 47.0231 32.7998 47.0968 32.7998H48.9203C48.9938 32.7998 49.0535 32.7405 49.0535 32.6676V29.4309C49.7483 30.2022 50.5909 30.579 51.6176 30.579C53.5259 30.579 55.4578 29.126 55.4578 26.3483C55.4606 23.57 53.5282 22.1165 51.6197 22.1165L51.6176 22.1166ZM53.3373 26.3483C53.3373 27.7628 52.4565 28.7498 51.1952 28.7498C49.9483 28.7498 49.0078 27.7179 49.0078 26.3483C49.0078 24.9789 49.9483 23.9468 51.1952 23.9468C52.4361 23.9467 53.3375 24.9564 53.3375 26.3482L53.3373 26.3483V26.3483ZM60.4092 22.1166C57.9516 22.1166 56.0262 23.9885 56.0262 26.3785C56.0262 28.7426 57.9383 30.5947 60.3791 30.5947C62.8454 30.5947 64.7767 28.7292 64.7767 26.3483C64.7767 23.9756 62.8583 22.1169 60.409 22.1169L60.4092 22.1166V22.1166ZM60.4092 28.7639C59.102 28.7639 58.1165 27.725 58.1165 26.3476C58.1165 24.9643 59.0679 23.9606 60.379 23.9606C61.6947 23.9606 62.6868 24.9995 62.6868 26.3778C62.6868 27.7608 61.729 28.7639 60.4093 28.7639H60.4092V28.7639ZM70.0247 22.2816H68.0181V20.2523C68.0181 20.1796 67.9586 20.1203 67.885 20.1203H66.0617C65.9879 20.1203 65.9281 20.1796 65.9281 20.2523V22.2816H65.0513C64.9779 22.2816 64.9185 22.3409 64.9185 22.4138V23.9639C64.9185 24.0367 64.9779 24.0961 65.0513 24.0961H65.9281V28.1072C65.9281 29.7281 66.7437 30.5499 68.3523 30.5499C69.0064 30.5499 69.5491 30.4163 70.0605 30.1294C70.102 30.1064 70.1278 30.0622 70.1278 30.0151V28.5389C70.1278 28.4933 70.1038 28.4503 70.0644 28.4265C70.0247 28.4018 69.9753 28.4006 69.9345 28.4205C69.5833 28.5953 69.2437 28.676 68.8641 28.676C68.2791 28.676 68.0181 28.4132 68.0181 27.8243V24.0969H70.0247C70.0983 24.0969 70.1576 24.0375 70.1576 23.9647V22.4146C70.1605 22.3418 70.1013 22.2824 70.0267 22.2824L70.0247 22.2816V22.2816ZM77.0163 22.2895V22.0403C77.0163 21.3071 77.3005 20.9801 77.938 20.9801C78.3181 20.9801 78.6235 21.0548 78.9654 21.1676C79.0075 21.1807 79.0515 21.1742 79.0857 21.1492C79.1209 21.1243 79.1408 21.0843 79.1408 21.042V19.522C79.1408 19.4639 79.103 19.4125 79.0464 19.3954C78.6851 19.2891 78.2229 19.18 77.5308 19.18C75.8465 19.18 74.9563 20.1182 74.9563 21.892V22.2738H74.0802C74.0067 22.2738 73.9464 22.3331 73.9464 22.4058V23.9639C73.9464 24.0367 74.0067 24.0961 74.0802 24.0961H74.9563V30.2829C74.9563 30.3558 75.0157 30.4152 75.0892 30.4152H76.9127C76.9864 30.4152 77.0464 30.3558 77.0464 30.2829V24.0966H78.7489L81.357 30.2818C81.0609 30.9317 80.7698 31.061 80.3723 31.061C80.0511 31.061 79.7127 30.9662 79.3668 30.7789C79.3343 30.7612 79.2957 30.7583 79.2606 30.769C79.2258 30.7811 79.1966 30.8068 79.1818 30.8402L78.5637 32.1814C78.5343 32.2448 78.5595 32.3192 78.6212 32.3521C79.2664 32.6977 79.8488 32.8452 80.5687 32.8452C81.9151 32.8452 82.6594 32.2249 83.3154 30.5559L86.479 22.4701C86.4949 22.4294 86.4901 22.3834 86.4649 22.3473C86.4398 22.3115 86.3994 22.2899 86.3552 22.2899H84.4568C84.4 22.2899 84.3491 22.3257 84.3305 22.3785L82.3859 27.8728L80.2559 22.3749C80.2364 22.3238 80.1866 22.2899 80.1314 22.2899H77.0158L77.0163 22.2895V22.2895ZM72.9627 22.2816H71.1392C71.0655 22.2816 71.0056 22.3409 71.0056 22.4138V30.283C71.0056 30.3558 71.0655 30.4152 71.1392 30.4152H72.9627C73.0363 30.4152 73.0964 30.3558 73.0964 30.283V22.4143C73.0965 22.3792 73.0824 22.3455 73.0573 22.3207C73.0322 22.2959 72.9981 22.282 72.9626 22.2821L72.9627 22.2816ZM72.0613 18.6986C71.3389 18.6986 70.7527 19.277 70.7527 19.9915C70.7527 20.7065 71.3391 21.2856 72.0613 21.2856C72.7834 21.2856 73.3691 20.7065 73.3691 19.9915C73.3691 19.2771 72.7832 18.6986 72.062 18.6986H72.0613V18.6986ZM88.036 24.8117C87.3143 24.8117 86.7528 24.2384 86.7528 23.5422C86.7528 22.8461 87.3216 22.2663 88.0428 22.2663C88.7645 22.2663 89.326 22.8394 89.326 23.535C89.326 24.2311 88.757 24.8117 88.0359 24.8117H88.036V24.8117ZM88.043 22.3925C87.3857 22.3925 86.8884 22.9093 86.8884 23.5422C86.8884 24.1749 87.3822 24.6848 88.0364 24.6848C88.6936 24.6848 89.1915 24.1683 89.1915 23.535C89.1915 22.9024 88.6971 22.3925 88.0436 22.3925H88.043V22.3925ZM88.3276 23.6655L88.6905 24.1682H88.3845L88.0577 23.707H87.7767V24.1682H87.5205V22.8358H88.1212C88.4342 22.8358 88.64 22.9942 88.64 23.2608C88.6414 23.4793 88.5132 23.6127 88.3287 23.6655H88.3276V23.6655ZM88.1107 23.0644H87.7766V23.4858H88.1107C88.2774 23.4858 88.377 23.4052 88.377 23.2749C88.377 23.1378 88.277 23.0644 88.1108 23.0644H88.1107V23.0644Z" fill="#807E7E"/>
</svg>
