<svg width="48" height="48" viewBox="0 0 48 48" fill="none" xmlns="http://www.w3.org/2000/svg">
<path fill-rule="evenodd" clip-rule="evenodd" d="M23.6108 48C23.6108 41.6894 21.2505 36.1739 16.5383 31.4617C11.8261 26.7495 6.31056 24.3892 0 24.3892V23.619C6.31056 23.619 11.8261 21.2588 16.5383 16.5383C21.1539 11.8983 23.513 6.51151 23.6078 0.385576C23.6111 0.17292 23.7832 0 23.9959 0V0C24.2085 0 24.3806 0.172938 24.3839 0.385595C24.4783 6.53548 26.8374 11.9223 31.4534 16.5383C36.1656 21.2505 41.6812 23.6108 47.9917 23.6108V24.381C41.6812 24.381 36.1656 26.7412 31.4534 31.4534C26.7412 36.1739 24.381 41.6894 24.381 48" fill="white"/>
</svg>
